<?xml version="1.0" standalone="no"?>
<!DOCTYPE svg PUBLIC "-//W3C//DTD SVG 20010904//EN"
 "http://www.w3.org/TR/2001/REC-SVG-20010904/DTD/svg10.dtd">
<svg version="1.0" xmlns="http://www.w3.org/2000/svg"
 width="640.000000pt" height="640.000000pt" viewBox="0 0 640.000000 640.000000"
 preserveAspectRatio="xMidYMid meet">

<g transform="translate(0.000000,640.000000) scale(0.100000,-0.100000)"
fill="#000000" stroke="none">
<path d="M2 4873 c1 -841 3 -1492 5 -1448 10 330 58 697 135 1045 56 256 176
640 263 844 25 58 45 108 45 112 0 13 191 387 245 479 72 124 176 281 266 403
l69 92 -515 0 -515 0 2 -1527z"/>
<path d="M1268 6322 c-38 -42 -80 -90 -94 -107 -36 -42 -206 -281 -238 -335
-15 -25 -40 -65 -55 -90 -84 -138 -201 -386 -270 -575 -62 -170 -125 -405
-112 -418 8 -8 266 -12 859 -15 l849 -5 6 269 c4 148 10 513 14 812 l6 542
-449 0 -449 -1 -67 -77z"/>
<path d="M4250 5585 l0 -815 178 0 c97 0 472 -3 833 -7 361 -3 664 -3 672 0
14 5 14 14 -4 79 -115 423 -290 814 -507 1137 -95 142 -154 219 -256 338 l-71
83 -422 0 -423 0 0 -815z"/>
<path d="M5418 6338 c51 -65 173 -244 228 -333 87 -144 115 -194 194 -350 224
-443 389 -956 476 -1472 43 -259 69 -515 77 -748 2 -44 4 605 5 1443 l2 1522
-515 0 -515 0 48 -62z"/>
<path d="M2737 6383 c-9 -8 -9 -70 -1 -100 5 -20 13 -23 54 -23 34 0 50 -4 54
-16 3 -9 6 -143 6 -299 0 -156 -3 -290 -6 -299 -4 -12 -20 -16 -54 -16 -53 0
-60 -8 -60 -65 0 -70 -37 -65 476 -65 l464 0 -2 183 -3 182 -70 0 -70 0 -7
-58 c-10 -80 -40 -142 -77 -161 -23 -12 -62 -16 -166 -16 l-135 0 0 135 0 135
48 0 c61 0 80 -19 89 -89 l6 -51 53 0 54 0 0 201 0 200 -52 -3 -53 -3 -7 -50
c-9 -63 -34 -85 -94 -85 l-44 0 0 120 0 120 120 0 c174 0 213 -22 248 -142
l17 -58 68 0 67 0 0 165 0 165 -458 0 c-252 0 -462 -3 -465 -7z"/>
<path d="M3225 4153 c-51 -138 -107 -260 -124 -270 -17 -10 -20 -9 -25 13 -10
37 -21 29 -23 -19 -2 -24 1 -37 5 -29 6 9 15 5 32 -15 l23 -27 42 89 c24 50
58 122 76 160 l34 70 3 -63 c2 -44 7 -62 15 -59 7 2 11 15 10 28 -9 81 -16
125 -23 129 -3 3 -11 13 -17 23 -8 16 -12 12 -28 -30z"/>
<path d="M3286 3988 c-2 -7 -11 -34 -21 -61 -9 -26 -15 -53 -12 -60 2 -6 7 3
11 21 4 17 12 32 16 32 5 0 7 7 4 15 -4 8 -2 15 4 15 6 0 8 10 4 23 -15 60 65
-56 118 -171 22 -48 25 -52 37 -36 7 10 13 24 13 32 0 12 -3 12 -15 2 -13 -11
-14 -10 -10 2 3 8 -4 25 -16 39 -11 13 -39 54 -61 92 -38 63 -64 83 -72 55z"/>
<path d="M3237 3924 c-4 -4 -7 -14 -7 -23 0 -11 3 -12 11 -4 6 6 10 16 7 23
-2 6 -7 8 -11 4z"/>
<path d="M3276 3894 c-4 -9 -4 -19 -1 -22 3 -3 5 1 5 9 0 11 2 11 10 -1 8 -13
10 -13 10 2 0 23 -17 31 -24 12z"/>
<path d="M3501 3874 c-12 -15 -21 -40 -20 -58 1 -30 2 -30 9 6 4 21 15 47 25
58 10 11 15 20 12 20 -3 0 -15 -12 -26 -26z"/>
<path d="M3211 3853 c-10 -26 -10 -27 4 -9 8 11 15 23 15 28 0 15 -7 8 -19
-19z"/>
<path d="M3261 3818 c-1 -39 -16 -52 -24 -20 -2 9 -7 -4 -11 -30 -5 -27 -13
-48 -18 -48 -6 0 -8 -12 -5 -30 5 -23 2 -32 -13 -40 -16 -8 -20 -21 -20 -60 0
-51 19 -135 41 -183 17 -38 3 -46 -24 -13 -46 58 -55 66 -69 61 -17 -7 -22
-39 -21 -137 1 -45 8 -88 16 -105 19 -35 63 -77 74 -70 5 3 15 2 22 -3 10 -6
9 -9 -7 -14 -14 -5 -37 2 -69 21 -32 18 -43 21 -34 10 17 -22 7 -34 -14 -17
-10 8 -15 9 -15 1 0 -6 6 -11 13 -11 8 0 7 -4 -3 -10 -19 -13 -8 -13 27 0 25
9 26 9 10 -4 -18 -14 -17 -15 3 -21 11 -4 26 -2 33 3 19 14 65 23 71 13 3 -5
-4 -12 -17 -17 -15 -5 0 -9 53 -11 59 -3 77 -1 86 12 6 8 18 15 27 15 8 0 23
3 32 6 14 6 13 8 -5 21 -21 15 -21 16 -3 37 l18 21 -22 -19 c-27 -23 -30 -43
-5 -49 9 -2 0 -4 -20 -4 -47 -1 -53 15 -22 58 53 75 70 244 28 290 -21 23 -21
79 0 95 9 6 16 15 16 20 0 4 -5 3 -12 -4 -17 -17 -28 -15 -28 4 0 8 5 12 10 9
17 -10 11 12 -7 26 -9 8 -30 18 -47 24 -35 11 -46 48 -26 85 13 24 4 43 -9 21
-6 -9 -11 -10 -15 -2 -4 6 -3 11 2 11 15 0 21 37 12 68 -8 26 -8 25 -9 -10z
m-64 -200 c-3 -8 -6 -5 -6 6 -1 11 2 17 5 13 3 -3 4 -12 1 -19z m137 2 c8 0
13 -12 12 -30 -1 -34 -19 -35 -24 -2 -2 12 -10 22 -19 22 -12 0 -9 -8 11 -35
27 -35 27 -36 13 -98 l-14 -62 -17 94 c-18 99 -16 127 10 117 9 -3 21 -6 28
-6z m-44 -520 c-20 -13 -50 -13 -50 0 0 6 15 10 33 10 24 0 28 -3 17 -10z"/>
<path d="M3552 3830 c0 -14 2 -19 5 -12 2 6 2 18 0 25 -3 6 -5 1 -5 -13z"/>
<path d="M1687 3805 c5 -34 4 -36 -35 -52 -23 -9 -44 -25 -48 -35 -7 -22 2
-81 16 -107 5 -9 25 -70 46 -136 20 -66 57 -182 82 -257 l45 -138 18 39 c22
51 53 153 50 166 -2 6 -33 101 -68 213 -36 112 -62 210 -59 218 3 9 24 23 46
32 38 14 41 18 38 51 l-3 36 -67 3 -67 3 6 -36z"/>
<path d="M2295 3807 c7 -36 -12 -67 -40 -67 -22 0 -51 -49 -74 -123 -11 -38
-24 -74 -28 -80 -4 -7 -8 -16 -10 -22 -1 -9 -31 -94 -124 -355 -17 -47 -35
-96 -39 -110 -5 -14 -27 -77 -50 -140 -22 -63 -54 -151 -69 -195 -16 -44 -32
-88 -36 -98 -7 -16 -2 -18 61 -15 l68 3 22 60 c27 72 83 227 243 677 66 186
125 347 131 359 7 11 27 27 46 35 32 13 34 18 34 59 l0 45 -70 0 -71 0 6 -33z"/>
<path d="M3296 3776 c2 -32 4 -68 5 -80 2 -41 17 26 17 74 -1 36 -2 39 -6 15
-6 -29 -6 -29 -13 10 -5 30 -6 25 -3 -19z"/>
<path d="M4797 3824 c3 -8 -20 -14 -67 -19 -53 -5 -78 -13 -98 -30 l-27 -23
-3 -521 -3 -521 75 0 c75 0 116 8 98 19 -6 4 -11 194 -14 511 -3 433 -1 508
12 527 19 29 27 32 111 39 38 4 69 10 69 15 0 4 -35 9 -79 11 -56 2 -77 0 -74
-8z"/>
<path d="M3052 3793 c-1 -23 -18 -114 -35 -192 -2 -8 -10 -17 -18 -20 -10 -4
-13 -16 -9 -40 4 -27 7 -31 16 -20 33 42 78 269 58 289 -8 8 -11 2 -12 -17z"/>
<path d="M3537 3771 c-14 -70 -8 -116 23 -164 55 -87 70 -125 70 -176 0 -104
-45 -264 -80 -286 -5 -3 -10 -12 -10 -18 1 -20 49 44 76 100 29 61 53 187 50
258 -3 52 -22 95 -69 157 -17 22 -33 61 -41 99 -12 60 -13 62 -19 30z"/>
<path d="M3473 3695 c0 -22 2 -30 4 -17 2 12 2 30 0 40 -3 9 -5 -1 -4 -23z"/>
<path d="M3091 3715 c0 -5 5 -20 12 -32 12 -21 14 -22 35 -7 12 8 22 21 22 27
0 7 -5 4 -11 -5 -14 -25 -34 -22 -47 5 -6 12 -11 18 -11 12z"/>
<path d="M2890 3695 c0 -8 5 -15 11 -15 5 0 8 4 5 9 -4 5 0 12 6 14 8 3 6 6
-4 6 -10 1 -18 -6 -18 -14z"/>
<path d="M3320 3691 c0 -18 -4 -22 -20 -18 -11 3 -20 1 -20 -4 0 -9 14 -13 38
-10 8 1 23 -5 33 -15 10 -9 19 -12 19 -6 0 6 -9 16 -20 22 -11 6 -18 14 -16
18 3 5 1 14 -5 22 -7 12 -9 10 -9 -9z"/>
<path d="M2888 3655 c-28 -85 -48 -269 -37 -332 22 -126 68 -217 122 -244 19
-8 20 -8 7 3 -38 33 -71 83 -85 131 -18 62 -21 202 -5 284 12 60 10 195 -2
158z"/>
<path d="M2946 3647 c3 -10 9 -15 12 -12 3 3 0 11 -7 18 -10 9 -11 8 -5 -6z"/>
<path d="M3092 3630 c0 -19 2 -27 5 -17 2 9 2 25 0 35 -3 9 -5 1 -5 -18z"/>
<path d="M3400 3641 c0 -11 -6 -21 -12 -23 -10 -4 -9 -9 3 -20 14 -15 16 -13
17 23 1 21 0 39 -3 39 -3 0 -5 -9 -5 -19z"/>
<path d="M3131 3568 c-1 -23 -5 -46 -8 -52 -4 -7 -3 -8 4 -1 14 14 26 82 15
89 -4 2 -9 -14 -11 -36z"/>
<path d="M3421 3593 c0 -12 -5 -25 -11 -28 -5 -3 -10 -14 -10 -23 0 -13 3 -12
16 6 8 12 13 32 11 45 l-4 22 -2 -22z"/>
<path d="M3472 3570 c0 -19 2 -27 5 -17 2 9 2 25 0 35 -3 9 -5 1 -5 -18z"/>
<path d="M3081 3544 c0 -11 3 -14 6 -6 3 7 2 16 -1 19 -3 4 -6 -2 -5 -13z"/>
<path d="M4955 3530 c-3 -5 -1 -10 4 -10 6 0 11 5 11 10 0 6 -2 10 -4 10 -3 0
-8 -4 -11 -10z"/>
<path d="M3422 3510 c0 -14 2 -19 5 -12 2 6 2 18 0 25 -3 6 -5 1 -5 -13z"/>
<path d="M2961 3504 c0 -11 3 -14 6 -6 3 7 2 16 -1 19 -3 4 -6 -2 -5 -13z"/>
<path d="M3400 3481 c0 -6 4 -13 10 -16 6 -3 7 1 4 9 -7 18 -14 21 -14 7z"/>
<path d="M3030 3475 c0 -6 7 -28 16 -50 l15 -40 -6 40 c-6 36 -25 75 -25 50z"/>
<path d="M3061 3454 c0 -11 3 -14 6 -6 3 7 2 16 -1 19 -3 4 -6 -2 -5 -13z"/>
<path d="M3430 3460 c0 -5 5 -10 11 -10 5 0 7 -5 3 -12 -4 -7 -3 -8 4 -4 6 4
9 13 5 21 -6 17 -23 20 -23 5z"/>
<path d="M2952 3430 c0 -14 2 -19 5 -12 2 6 2 18 0 25 -3 6 -5 1 -5 -13z"/>
<path d="M3466 3345 c2 -50 1 -61 -5 -40 -8 28 -9 28 -10 5 0 -14 3 -31 8 -38
11 -18 21 6 22 56 l2 37 7 -35 c7 -34 7 -34 8 -5 0 17 -3 39 -8 50 l-9 20 -1
-20 c-2 -14 -5 -12 -10 10 -6 20 -7 7 -4 -40z"/>
<path d="M3553 3345 c0 -38 2 -53 4 -32 2 20 2 52 0 70 -2 17 -4 1 -4 -38z"/>
<path d="M3021 3374 c0 -11 3 -14 6 -6 3 7 2 16 -1 19 -3 4 -6 -2 -5 -13z"/>
<path d="M3013 3275 c0 -33 2 -45 4 -27 2 18 2 45 0 60 -2 15 -4 0 -4 -33z"/>
<path d="M2932 3280 c0 -14 2 -19 5 -12 2 6 2 18 0 25 -3 6 -5 1 -5 -13z"/>
<path d="M3030 3241 c0 -10 -3 -34 -6 -52 -6 -34 -6 -34 11 -11 10 14 14 31
10 45 -5 17 -4 19 4 7 12 -17 14 -10 5 14 -8 22 -24 20 -24 -3z"/>
<path d="M3435 3230 c-5 -16 -4 -25 4 -28 6 -2 11 -8 11 -13 0 -6 -4 -7 -10
-4 -6 3 -7 -1 -4 -9 4 -11 0 -16 -11 -16 -9 0 -13 -4 -10 -10 19 -31 46 22 36
71 -7 33 -8 33 -16 9z"/>
<path d="M5325 3155 c-28 -53 -56 -101 -62 -107 -10 -8 -13 -59 -13 -193 l0
-183 78 3 c42 1 79 3 82 4 3 0 3 128 0 283 -6 337 -8 342 -85 193z"/>
<path d="M2941 3214 c0 -11 3 -14 6 -6 3 7 2 16 -1 19 -3 4 -6 -2 -5 -13z"/>
<path d="M3062 3205 c4 -4 1 -17 -7 -29 -21 -30 -18 -39 5 -16 23 23 25 36 8
46 -7 4 -10 4 -6 -1z"/>
<path d="M5190 3195 c-7 -9 -11 -17 -9 -20 3 -2 10 5 17 15 14 24 10 26 -8 5z"/>
<path d="M3345 3140 c3 -5 8 -10 11 -10 2 0 4 5 4 10 0 6 -5 10 -11 10 -5 0
-7 -4 -4 -10z"/>
<path d="M3466 3105 c-11 -8 -15 -15 -9 -15 6 0 16 7 23 15 16 19 11 19 -14 0z"/>
<path d="M3495 3094 c-19 -15 -22 -21 -9 -15 18 9 52 41 43 41 -2 0 -17 -12
-34 -26z"/>
<path d="M3007 3074 c-4 -4 -2 -13 4 -20 8 -9 6 -11 -9 -7 -15 4 -19 -1 -18
-20 1 -14 7 -31 13 -38 16 -20 -8 -49 -41 -49 -25 0 -26 2 -24 53 l2 52 3 -47
c5 -63 18 -62 18 1 0 42 -3 48 -20 47 -23 -1 -30 -30 -20 -82 5 -31 9 -34 39
-34 37 0 41 -5 51 -74 4 -27 13 -46 20 -46 18 0 27 29 14 48 -9 14 -10 14 -6
-5 3 -13 1 -26 -4 -29 -5 -3 -9 1 -9 8 0 7 -3 24 -7 37 -5 21 -3 23 15 19 13
-4 20 -2 16 3 -3 6 74 8 196 7 l202 -3 4 -54 c3 -30 6 -56 8 -58 2 -2 11 30
21 72 l18 75 38 0 39 0 0 60 c0 51 -3 60 -17 59 -11 0 -13 -3 -5 -6 14 -6 16
-71 2 -93 -7 -11 -10 -7 -10 19 0 39 -9 38 -12 -2 -2 -22 -7 -27 -30 -27 -25
0 -27 2 -18 26 6 14 7 36 4 50 -5 21 -3 24 22 25 16 0 23 3 16 6 -7 3 -34 2
-59 -2 -33 -5 -42 -10 -34 -18 6 -6 11 -16 11 -21 0 -6 -5 -5 -12 2 -7 7 -20
12 -30 12 -30 0 -20 18 15 25 41 9 49 14 41 26 -3 6 -10 6 -17 1 -39 -30 -256
-43 -342 -21 -22 5 -47 11 -55 12 -8 1 -18 5 -21 10 -3 4 -8 4 -12 1z m63 -40
c0 -2 -7 -4 -15 -4 -8 0 -15 4 -15 10 0 5 7 7 15 4 8 -4 15 -8 15 -10z m50
-23 c0 -13 113 -21 183 -13 l62 7 -45 6 -45 6 48 1 c62 2 60 -22 -1 -26 -23
-2 -42 -8 -42 -14 0 -6 -28 -8 -82 -5 -66 5 -73 4 -33 -3 56 -10 203 -2 211
11 9 15 34 10 62 -11 l26 -21 -222 1 -222 1 15 22 c20 28 85 58 85 38z m347
-108 c-16 -16 -17 -16 -17 0 0 10 5 15 10 12 6 -3 10 -1 10 6 0 7 3 9 7 5 4
-3 -1 -14 -10 -23z m-62 10 c-88 -6 -393 -8 -377 -1 9 4 107 6 217 6 110 -1
182 -3 160 -5z m52 -55 c-3 -8 -6 -5 -6 6 -1 11 2 17 5 13 3 -3 4 -12 1 -19z"/>
<path d="M2 1523 l-2 -1523 510 0 c281 0 510 2 510 5 0 3 -34 51 -76 107 -223
300 -416 656 -579 1068 -36 92 -127 369 -160 490 -112 408 -183 875 -198 1300
-2 41 -4 -610 -5 -1447z"/>
<path d="M5090 3020 c-6 -11 -8 -20 -6 -20 3 0 10 9 16 20 6 11 8 20 6 20 -3
0 -10 -9 -16 -20z"/>
<path d="M6390 2930 c0 -61 -9 -199 -20 -308 -18 -171 -29 -251 -70 -507 -13
-77 -76 -343 -116 -484 -158 -564 -424 -1118 -729 -1521 -41 -55 -75 -102 -75
-105 0 -3 230 -5 510 -5 l510 0 0 1520 c0 836 -2 1520 -5 1520 -3 0 -5 -50 -5
-110z"/>
<path d="M5039 2943 c-13 -16 -12 -17 4 -4 16 13 21 21 13 21 -2 0 -10 -8 -17
-17z"/>
<path d="M5010 2909 c0 -5 5 -7 10 -4 6 3 10 8 10 11 0 2 -4 4 -10 4 -5 0 -10
-5 -10 -11z"/>
<path d="M3202 2785 c3 -55 2 -90 -1 -78 -6 20 -8 20 -31 8 l-25 -13 28 -11
c17 -7 27 -18 27 -31 0 -26 16 -26 23 0 4 17 12 20 44 17 35 -3 38 -5 36 -31
-2 -22 1 -26 15 -21 9 4 22 7 27 8 14 3 23 26 25 62 2 27 3 28 8 7 4 -13 12
-23 17 -23 6 0 13 10 17 23 5 20 6 19 7 -8 1 -42 -10 -94 -20 -94 -4 0 -5 16
-2 35 5 30 3 34 -11 29 -9 -3 -16 -13 -16 -21 0 -8 -9 -17 -20 -20 -11 -3 -18
-8 -16 -12 2 -3 -54 -6 -124 -7 -122 -1 -129 0 -134 20 -3 11 -8 17 -12 14 -3
-4 -3 -16 1 -27 5 -17 15 -21 50 -21 24 0 46 -3 48 -7 7 -11 31 -342 25 -348
-2 -2 -31 0 -64 5 -306 52 -620 80 -933 84 -157 2 -252 1 -211 -3 69 -7 71 -8
25 -10 -42 -3 -46 -4 -25 -12 16 -5 0 -6 -42 -2 l-68 5 2 -43 c1 -44 1 -44 5
-6 4 33 7 37 32 37 l27 0 -8 -92 c-5 -51 -7 -106 -6 -123 2 -16 7 22 12 86 l8
117 52 6 c198 23 535 17 746 -14 36 -6 142 -22 235 -36 94 -14 195 -29 225
-34 43 -6 91 -1 220 22 359 63 421 70 634 75 224 6 496 -11 508 -31 5 -7 8 -4
8 8 0 14 5 17 23 12 12 -3 25 -6 29 -6 4 0 9 -30 11 -67 l3 -68 2 74 2 74 37
-6 c20 -4 40 -10 44 -14 4 -4 12 -114 18 -243 6 -129 18 -363 26 -520 8 -157
19 -372 25 -479 5 -107 8 -197 5 -199 -3 -3 -123 7 -267 21 -403 41 -615 51
-793 38 -151 -11 -332 -37 -457 -64 -63 -14 -75 -13 -205 9 -433 75 -631 78
-1168 19 -121 -14 -224 -25 -228 -25 -4 0 -6 39 -3 87 3 80 3 82 -5 28 -17
-118 -16 -130 6 -128 11 1 76 7 145 14 69 7 139 13 156 14 17 1 35 4 40 7 5 3
81 11 169 18 177 14 520 8 625 -10 36 -6 83 -13 105 -16 22 -3 85 -12 140 -22
120 -20 261 -19 315 1 40 15 174 39 200 35 16 -2 27 -1 25 2 -13 21 464 27
625 8 52 -6 109 -10 127 -9 18 0 34 -3 37 -8 4 -5 14 -7 25 -4 10 2 83 -3 162
-13 79 -9 166 -18 193 -20 l49 -2 -6 146 c-21 483 -26 582 -31 627 -3 28 -8
118 -11 200 -3 83 -10 222 -15 310 -5 88 -10 171 -10 184 0 16 -4 21 -15 18
-8 -4 -17 -2 -20 3 -3 5 -20 7 -38 4 -18 -3 -27 -2 -20 3 6 5 -13 8 -45 8 -32
0 -113 6 -182 13 -147 15 -411 16 -527 2 -68 -7 -304 -44 -426 -65 -15 -3 -26
-1 -23 3 2 4 -8 8 -22 8 -15 1 -21 -1 -14 -3 6 -3 10 -9 7 -13 -3 -5 -11 -7
-18 -4 -7 2 -30 -2 -50 -11 -20 -8 -40 -15 -44 -15 -4 0 -9 40 -9 88 -1 57 1
77 6 57 6 -25 8 -19 10 30 1 33 5 87 9 120 l6 60 45 5 45 5 13 60 c7 33 16 70
19 83 4 18 0 23 -25 28 -24 5 -33 13 -39 38 -10 42 -11 59 -2 71 5 7 -23 11
-88 10 l-95 0 4 -100z m158 -57 c0 -39 -2 -43 -25 -43 -17 0 -24 4 -20 13 3 8
5 18 5 23 0 5 7 9 15 9 8 0 15 9 15 20 0 11 2 20 5 20 3 0 5 -19 5 -42z m20
-118 c0 -5 -8 -10 -17 -10 -15 0 -16 2 -3 10 19 12 20 12 20 0z m-91 -60 c2
-19 4 -55 3 -80 -1 -25 -3 -86 -4 -137 -2 -100 -4 -103 -60 -95 -27 4 -28 7
-29 61 -3 105 -8 186 -14 218 -9 50 11 74 60 71 37 -3 40 -5 44 -38z m18 -12
c-2 -13 -4 -5 -4 17 -1 22 1 32 4 23 2 -10 2 -28 0 -40z m876 -215 c-13 -2
-35 -2 -50 0 -16 2 -5 4 22 4 28 0 40 -2 28 -4z m-240 -10 c-7 -2 -21 -2 -30
0 -10 3 -4 5 12 5 17 0 24 -2 18 -5z m460 0 c-13 -2 -33 -2 -45 0 -13 2 -3 4
22 4 25 0 35 -2 23 -4z"/>
<path d="M3191 2544 c0 -11 3 -14 6 -6 3 7 2 16 -1 19 -3 4 -6 -2 -5 -13z"/>
<path d="M3218 2513 c-1 -26 -2 -61 -3 -78 -1 -30 29 -85 46 -85 13 0 11 34
-3 48 -8 8 -13 41 -13 84 0 48 -4 73 -12 75 -9 3 -14 -10 -15 -44z"/>
<path d="M3281 2474 c0 -11 3 -14 6 -6 3 7 2 16 -1 19 -3 4 -6 -2 -5 -13z"/>
<path d="M1411 2864 c0 -11 3 -14 6 -6 3 7 2 16 -1 19 -3 4 -6 -2 -5 -13z"/>
<path d="M3025 2785 c3 -11 11 -41 16 -67 6 -27 15 -48 20 -48 13 0 11 24 -3
38 -8 8 -8 12 -1 12 6 0 13 9 16 20 7 28 24 25 31 -5 10 -41 21 -28 18 20 -4
44 -5 45 -37 45 -19 0 -37 -5 -41 -11 -4 -8 -9 -7 -16 2 -7 10 -8 9 -3 -6z"/>
<path d="M4830 2750 c-8 -5 -10 -10 -5 -10 6 0 17 5 25 10 8 5 11 10 5 10 -5
0 -17 -5 -25 -10z"/>
<path d="M3960 2730 c-9 -6 -10 -10 -3 -10 6 0 15 5 18 10 8 12 4 12 -15 0z"/>
<path d="M3080 2686 c0 -19 3 -42 7 -51 5 -15 8 -14 19 6 l14 24 -3 -25 c-1
-18 3 -25 18 -27 l20 -3 -20 9 c-19 9 -19 10 3 10 28 1 29 27 2 36 -11 4 -18
11 -15 16 3 5 -1 6 -9 3 -8 -3 -17 -13 -19 -22 -3 -10 -3 0 -2 21 2 20 -1 37
-6 37 -5 0 -9 -15 -9 -34z"/>
<path d="M4033 2673 c9 -2 23 -2 30 0 6 3 -1 5 -18 5 -16 0 -22 -2 -12 -5z"/>
<path d="M4136 2669 c39 -9 398 -9 454 -1 25 4 -74 7 -219 7 -146 0 -251 -3
-235 -6z"/>
<path d="M4658 2673 c12 -2 32 -2 45 0 12 2 2 4 -23 4 -25 0 -35 -2 -22 -4z"/>
<path d="M4740 2676 c0 -2 15 -6 34 -8 19 -2 32 0 30 4 -5 8 -64 12 -64 4z"/>
<path d="M5085 2670 l-120 -7 137 1 c75 0 135 3 132 8 -3 4 -11 7 -17 6 -7 -1
-66 -5 -132 -8z"/>
<path d="M3175 2660 c3 -5 8 -10 11 -10 2 0 4 5 4 10 0 6 -5 10 -11 10 -5 0
-7 -4 -4 -10z"/>
<path d="M3213 2623 c9 -2 25 -2 35 0 9 3 1 5 -18 5 -19 0 -27 -2 -17 -5z"/>
<path d="M1783 2313 c9 -2 23 -2 30 0 6 3 -1 5 -18 5 -16 0 -22 -2 -12 -5z"/>
<path d="M1773 2245 c0 -33 2 -45 4 -27 2 18 2 45 0 60 -2 15 -4 0 -4 -33z"/>
<path d="M1855 2097 c-4 -58 -5 -111 -3 -119 3 -7 8 38 12 101 4 62 5 115 3
118 -3 2 -8 -43 -12 -100z"/>
<path d="M4571 2109 c1 -46 5 -127 9 -179 6 -67 6 -44 3 80 -3 96 -7 177 -9
179 -2 2 -3 -34 -3 -80z"/>
<path d="M3262 2155 c0 -16 2 -22 5 -12 2 9 2 23 0 30 -3 6 -5 -1 -5 -18z"/>
<path d="M1763 2105 c0 -33 2 -45 4 -27 2 18 2 45 0 60 -2 15 -4 0 -4 -33z"/>
<path d="M3254 2020 c0 -58 1 -81 3 -52 2 28 2 76 0 105 -2 28 -3 5 -3 -53z"/>
<path d="M4644 2035 c0 -49 1 -71 3 -48 2 23 2 64 0 90 -2 26 -3 8 -3 -42z"/>
<path d="M1753 1985 c0 -33 2 -45 4 -27 2 18 2 45 0 60 -2 15 -4 0 -4 -33z"/>
<path d="M1913 1975 c0 -33 2 -45 4 -27 2 18 2 45 0 60 -2 15 -4 0 -4 -33z"/>
<path d="M1835 1840 c-4 -56 -5 -103 -2 -106 2 -3 8 41 12 96 3 56 5 104 2
106 -3 3 -8 -40 -12 -96z"/>
<path d="M4654 1845 c0 -49 1 -71 3 -48 2 23 2 64 0 90 -2 26 -3 8 -3 -42z"/>
<path d="M1743 1865 c0 -33 2 -45 4 -27 2 18 2 45 0 60 -2 15 -4 0 -4 -33z"/>
<path d="M1902 1873 c-1 -18 -6 -33 -12 -33 -6 0 -9 -60 -8 -162 1 -90 3 -146
5 -126 4 35 6 37 45 40 39 3 41 4 44 43 5 57 33 78 93 68 25 -4 71 -7 101 -6
l54 1 -85 -81 c-100 -96 -131 -152 -137 -244 l-4 -63 85 0 85 0 6 31 c3 17 6
44 6 59 0 46 38 140 99 245 60 102 87 167 77 184 -9 15 -67 4 -81 -15 -11 -16
-16 -15 -76 4 -105 34 -155 33 -193 -4 -14 -15 -27 -23 -27 -18 -1 5 -2 16 -3
24 0 8 -11 16 -23 16 -13 1 -27 2 -32 3 -6 0 -12 16 -14 34 l-4 32 -1 -32z"/>
<path d="M2576 1836 c-102 -38 -159 -124 -165 -248 -4 -101 17 -167 74 -223
129 -130 361 -80 418 90 34 98 17 229 -39 302 -59 77 -193 114 -288 79z m109
-72 c36 -14 48 -64 48 -194 0 -153 -13 -190 -68 -190 -46 0 -61 30 -70 140 -9
109 7 209 36 233 23 19 30 20 54 11z"/>
<path d="M3183 1841 c-12 -3 -33 -16 -47 -28 l-26 -23 0 23 c0 20 -5 22 -50
24 l-50 1 0 -124 0 -124 50 0 50 0 0 45 c0 36 5 48 24 61 21 13 33 14 81 4 31
-6 75 -9 98 -5 l42 7 -45 -46 c-24 -25 -50 -46 -57 -46 -7 0 -13 -5 -13 -10 0
-6 -11 -22 -25 -36 -47 -47 -78 -123 -79 -194 l-1 -64 45 -2 c25 0 51 -2 57
-2 9 -2 13 -47 16 -169 l3 -168 2 173 c1 101 6 171 11 168 26 -16 39 7 43 79
5 77 23 120 138 333 22 40 40 84 40 96 0 20 -5 23 -35 21 -21 0 -40 -8 -48
-19 -13 -18 -16 -18 -83 5 -73 25 -106 29 -141 20z"/>
<path d="M4271 1840 c-55 -13 -114 -61 -129 -104 -16 -48 -1 -108 34 -138 30
-27 30 -36 -1 -48 -33 -13 -65 -66 -65 -110 0 -52 33 -97 88 -122 38 -18 67
-22 152 -22 115 -1 149 8 217 58 l42 31 -1 110 c0 61 -3 98 -5 83 -4 -24 -23
-41 -23 -20 0 4 -16 18 -35 31 l-34 23 34 33 c19 18 36 41 37 51 1 11 4 -6 8
-36 6 -53 7 -52 8 25 0 47 -3 72 -7 60 -7 -17 -8 -17 -14 7 -19 74 -175 119
-306 88z m171 -87 c25 -22 23 -68 -3 -86 -23 -17 -72 -8 -121 21 -32 19 -37
56 -10 71 28 17 113 13 134 -6z m-59 -267 c57 -25 77 -54 63 -91 -15 -40 -135
-45 -184 -8 -37 27 -41 77 -10 110 27 29 46 27 131 -11z"/>
<path d="M3739 1809 c-15 -17 -40 -29 -67 -34 -41 -7 -42 -8 -42 -46 l0 -39
45 0 45 0 0 -143 c0 -157 -3 -167 -57 -167 -31 0 -33 -2 -33 -34 l0 -35 148
-3 c195 -4 192 -5 192 38 0 29 -3 34 -24 34 -58 0 -56 -7 -56 234 l0 221 -63
0 c-56 1 -66 -2 -88 -26z"/>
<path d="M1733 1725 c0 -38 2 -53 4 -32 2 20 2 52 0 70 -2 17 -4 1 -4 -38z"/>
<path d="M4661 1634 c1 -49 5 -132 9 -184 5 -66 6 -40 3 85 -3 99 -7 182 -9
184 -2 2 -3 -36 -3 -85z"/>
<path d="M1816 1584 c-4 -58 -5 -108 -3 -111 3 -2 8 43 12 102 4 58 5 108 3
111 -3 2 -8 -43 -12 -102z"/>
<path d="M3242 1650 c0 -19 2 -27 5 -17 2 9 2 25 0 35 -3 9 -5 1 -5 -18z"/>
<path d="M1723 1605 c0 -27 2 -38 4 -22 2 15 2 37 0 50 -2 12 -4 0 -4 -28z"/>
<path d="M1713 1475 c0 -38 2 -53 4 -32 2 20 2 52 0 70 -2 17 -4 1 -4 -38z"/>
<path d="M1873 1450 c0 -30 2 -43 4 -27 2 15 2 39 0 55 -2 15 -4 2 -4 -28z"/>
<path d="M1803 1385 c0 -33 2 -45 4 -27 2 18 2 45 0 60 -2 15 -4 0 -4 -33z"/>
<path d="M1703 1335 c0 -33 2 -45 4 -27 2 18 2 45 0 60 -2 15 -4 0 -4 -33z"/>
<path d="M1863 1330 c0 -36 2 -50 4 -32 2 17 2 47 0 65 -2 17 -4 3 -4 -33z"/>
<path d="M4617 1180 c3 -102 7 -187 9 -189 6 -7 2 177 -6 279 -5 65 -6 36 -3
-90z"/>
<path d="M1793 1260 c0 -36 2 -50 4 -32 2 17 2 47 0 65 -2 17 -4 3 -4 -33z"/>
<path d="M4683 1235 c0 -49 3 -137 7 -195 6 -102 7 -103 7 -25 0 44 -3 132 -7
195 l-7 115 0 -90z"/>
<path d="M1685 1160 c-4 -61 -5 -113 -2 -116 2 -3 8 45 12 106 4 62 5 114 2
116 -3 3 -8 -45 -12 -106z"/>
<path d="M1853 1205 c0 -33 2 -45 4 -27 2 18 2 45 0 60 -2 15 -4 0 -4 -33z"/>
<path d="M1775 1065 c-4 -58 -5 -108 -3 -111 3 -2 8 43 12 102 4 58 5 108 3
111 -3 2 -8 -43 -12 -102z"/>
<path d="M1840 1088 c0 -18 -3 -63 -7 -100 -3 -38 -2 -68 3 -68 5 0 10 45 12
100 2 55 1 100 -2 100 -3 0 -6 -15 -6 -32z"/>
<path d="M2578 1023 c34 -2 90 -2 125 0 34 2 6 3 -63 3 -69 0 -97 -1 -62 -3z"/>
<path d="M2388 1013 c17 -2 47 -2 65 0 17 2 3 4 -33 4 -36 0 -50 -2 -32 -4z"/>
<path d="M2828 1013 c18 -2 45 -2 60 0 15 2 0 4 -33 4 -33 0 -45 -2 -27 -4z"/>
<path d="M3738 1013 c50 -2 134 -2 185 0 50 1 9 3 -93 3 -102 0 -143 -2 -92
-3z"/>
<path d="M2283 1003 c15 -2 37 -2 50 0 12 2 0 4 -28 4 -27 0 -38 -2 -22 -4z"/>
<path d="M2938 1003 c12 -2 32 -2 45 0 12 2 2 4 -23 4 -25 0 -35 -2 -22 -4z"/>
<path d="M3495 1000 c-17 -4 8 -5 55 -2 47 2 87 6 89 8 8 7 -114 2 -144 -6z"/>
<path d="M4048 1003 c17 -2 47 -2 65 0 17 2 3 4 -33 4 -36 0 -50 -2 -32 -4z"/>
<path d="M2208 993 c6 -2 18 -2 25 0 6 3 1 5 -13 5 -14 0 -19 -2 -12 -5z"/>
<path d="M3023 993 c9 -2 23 -2 30 0 6 3 -1 5 -18 5 -16 0 -22 -2 -12 -5z"/>
<path d="M4245 985 c98 -14 166 -18 100 -5 -22 5 -74 11 -115 14 l-75 5 90
-14z"/>
<path d="M2128 983 c12 -2 30 -2 40 0 9 3 -1 5 -23 4 -22 0 -30 -2 -17 -4z"/>
<path d="M2553 983 c43 -2 110 -2 150 0 40 1 5 3 -78 3 -82 0 -115 -2 -72 -3z"/>
<path d="M3083 983 c9 -2 23 -2 30 0 6 3 -1 5 -18 5 -16 0 -22 -2 -12 -5z"/>
<path d="M3380 980 c-17 -6 -9 -7 25 -3 28 3 52 7 54 9 8 7 -54 2 -79 -6z"/>
<path d="M2068 973 c6 -2 18 -2 25 0 6 3 1 5 -13 5 -14 0 -19 -2 -12 -5z"/>
<path d="M2353 973 c20 -2 54 -2 75 0 20 2 3 4 -38 4 -41 0 -58 -2 -37 -4z"/>
<path d="M2827 973 c18 -2 50 -2 70 0 21 2 7 4 -32 4 -38 0 -55 -2 -38 -4z"/>
<path d="M3170 967 c74 -22 78 -26 20 -22 l-55 4 45 -9 c30 -7 68 -7 115 0 39
6 106 15 150 19 68 7 56 8 -80 7 -88 -1 -178 2 -200 6 -39 8 -38 7 5 -5z"/>
<path d="M3588 973 c23 -2 61 -2 85 0 23 2 4 4 -43 4 -47 0 -66 -2 -42 -4z"/>
<path d="M3973 973 c20 -2 54 -2 75 0 20 2 3 4 -38 4 -41 0 -58 -2 -37 -4z"/>
<path d="M1975 960 c-27 -7 -27 -8 -5 -8 14 0 39 4 55 8 27 7 27 8 5 8 -14 0
-38 -4 -55 -8z"/>
<path d="M2213 963 c15 -2 39 -2 55 0 15 2 2 4 -28 4 -30 0 -43 -2 -27 -4z"/>
<path d="M2973 963 c15 -2 39 -2 55 0 15 2 2 4 -28 4 -30 0 -43 -2 -27 -4z"/>
<path d="M4137 963 c18 -2 50 -2 70 0 21 2 7 4 -32 4 -38 0 -55 -2 -38 -4z"/>
<path d="M4403 963 c9 -2 25 -2 35 0 9 3 1 5 -18 5 -19 0 -27 -2 -17 -5z"/>
<path d="M2118 953 c12 -2 32 -2 45 0 12 2 2 4 -23 4 -25 0 -35 -2 -22 -4z"/>
<path d="M3078 953 c12 -2 30 -2 40 0 9 3 -1 5 -23 4 -22 0 -30 -2 -17 -4z"/>
<path d="M4268 953 c12 -2 32 -2 45 0 12 2 2 4 -23 4 -25 0 -35 -2 -22 -4z"/>
<path d="M4468 953 c6 -2 18 -2 25 0 6 3 1 5 -13 5 -14 0 -19 -2 -12 -5z"/>
<path d="M1880 940 l-25 -8 25 -2 25 -2 -25 -8 c-20 -6 -21 -8 -5 -8 11 0 34
4 50 8 l30 8 -30 2 c-30 2 -30 2 -5 10 20 6 21 8 5 8 -11 0 -31 -4 -45 -8z"/>
<path d="M2000 940 c-27 -6 -29 -8 -10 -8 14 -1 43 3 65 7 33 7 35 9 10 9 -16
-1 -46 -4 -65 -8z"/>
<path d="M4390 939 c60 -10 108 -9 55 2 -22 4 -53 8 -70 7 -22 0 -19 -3 15 -9z"/>
<path d="M4535 940 l30 -8 -34 -1 c-19 0 -32 -4 -28 -7 3 -4 28 -3 54 1 42 7
45 9 23 16 -14 4 -36 7 -50 7 -22 0 -22 -1 5 -8z"/>
<path d="M4620 930 c-13 -8 -12 -10 3 -10 9 0 17 5 17 10 0 12 -1 12 -20 0z"/>
<path d="M4701 917 c-1 -16 -8 -17 -48 -13 l-48 5 48 -11 c53 -11 61 -9 54 19
-4 17 -5 17 -6 0z"/>
<path d="M1760 908 c0 -20 27 -22 70 -7 19 7 16 7 -14 3 -26 -4 -42 -1 -47 8
-7 10 -9 9 -9 -4z"/>
<path d="M4578 913 c7 -3 16 -2 19 1 4 3 -2 6 -13 5 -11 0 -14 -3 -6 -6z"/>
<path d="M3528 843 c7 -3 16 -2 19 1 4 3 -2 6 -13 5 -11 0 -14 -3 -6 -6z"/>
<path d="M1125 590 c-112 -3 -179 -9 -178 -15 1 -5 27 -52 59 -102 l57 -93
2137 0 2136 0 46 77 c25 43 53 93 62 110 l16 33 -2077 -2 c-1143 -1 -2159 -5
-2258 -8z"/>
<path d="M4363 263 c9 -2 23 -2 30 0 6 3 -1 5 -18 5 -16 0 -22 -2 -12 -5z"/>
<path d="M2628 213 c7 -3 16 -2 19 1 4 3 -2 6 -13 5 -11 0 -14 -3 -6 -6z"/>
<path d="M4025 210 c-3 -5 -1 -10 4 -10 6 0 11 5 11 10 0 6 -2 10 -4 10 -3 0
-8 -4 -11 -10z"/>
<path d="M3108 203 c6 -2 18 -2 25 0 6 3 1 5 -13 5 -14 0 -19 -2 -12 -5z"/>
<path d="M3453 143 c9 -2 23 -2 30 0 6 3 -1 5 -18 5 -16 0 -22 -2 -12 -5z"/>
<path d="M2901 136 c2 -2 24 -6 49 -9 30 -4 38 -3 25 3 -19 8 -83 14 -74 6z"/>
<path d="M4578 133 c7 -3 16 -2 19 1 4 3 -2 6 -13 5 -11 0 -14 -3 -6 -6z"/>
<path d="M2808 123 c7 -3 16 -2 19 1 4 3 -2 6 -13 5 -11 0 -14 -3 -6 -6z"/>
<path d="M4818 93 c7 -3 16 -2 19 1 4 3 -2 6 -13 5 -11 0 -14 -3 -6 -6z"/>
<path d="M2470 50 c-9 -6 -10 -10 -3 -10 6 0 15 5 18 10 8 12 4 12 -15 0z"/>
<path d="M2298 43 c7 -3 16 -2 19 1 4 3 -2 6 -13 5 -11 0 -14 -3 -6 -6z"/>
</g>
</svg>
